<svg xmlns="http://www.w3.org/2000/svg" width="56" height="19" fill="none" viewBox="0 0 56 19">
  <g fill="#fff" clip-path="url(#a)">
    <path d="M55.85 14.448v3.696c-.544.032-1.096.048-1.656.048-1.52 0-2.688-.36-3.504-1.08-.816-.736-1.328-1.84-1.536-3.312-.192-.88-.392-1.392-.6-1.536-.192-.16-.816-.256-1.872-.288h-3.72V18h-4.704V1.2h10.656c2.192 0 3.872.456 5.04 1.368 1.168.912 1.752 2.272 1.752 4.08 0 2.16-1.032 3.592-3.096 4.296v.12c.608.416.968.984 1.08 1.704.16 1.12.88 1.68 2.16 1.68ZM42.962 4.896v3.432h5.952c.656 0 1.168-.144 1.536-.432.368-.304.552-.728.552-1.272s-.184-.968-.552-1.272c-.368-.304-.88-.456-1.536-.456h-5.952Zm-7.338 8.496c0 1.568-.496 2.728-1.488 3.48-.976.752-2.48 1.128-4.512 1.128H18.992V1.2h10.632c3.936 0 5.904 1.464 5.904 4.392 0 1.872-.888 3.136-2.664 3.792v.096c1.84.688 2.76 1.992 2.76 3.912Zm-6.48-8.448h-5.448v2.88h5.232c.576 0 1.032-.128 1.368-.384.336-.256.504-.6.504-1.032 0-.976-.552-1.464-1.656-1.464Zm1.776 7.872c0-.544-.184-.968-.552-1.272-.352-.304-.832-.456-1.44-.456h-5.256v3.192h5.472c1.184 0 1.776-.488 1.776-1.464Zm-20.542-.84c-1.152.464-2.024.864-2.616 1.2-.592.336-1.056.712-1.392 1.128h9.48V18H.922v-1.512c.08-1.344.456-2.464 1.128-3.36.704-.928 1.504-1.648 2.4-2.16.944-.544 2.104-1.12 3.48-1.728.88-.384 1.568-.704 2.064-.96 1.136-.576 1.704-1.24 1.704-1.992 0-.4-.256-.712-.768-.936-.496-.24-1.176-.36-2.04-.36-.944 0-1.68.176-2.208.528-.528.336-.792.816-.792 1.44H1.162c0-1.888.688-3.352 2.064-4.392C4.618 1.512 6.554.984 9.034.984c2.288 0 4.08.456 5.376 1.368 1.312.896 1.968 2.136 1.968 3.72 0 1.056-.28 1.96-.84 2.712-.512.704-1.192 1.296-2.04 1.776-.8.432-1.84.904-3.12 1.416Z"/>
  </g>
  <defs>
    <clipPath id="a">
      <path fill="#fff" d="M0 0h54.928v17.208H0z" transform="translate(.922 .984)"/>
    </clipPath>
  </defs>
</svg>
