<svg xmlns="http://www.w3.org/2000/svg" width="33" height="58" fill="none" viewBox="0 0 33 58">
  <path fill="#fff" fill-rule="evenodd" d="m16.434 45.023-11.34-10.98.028-.005-.312-.29C1.73 30.763 0 26.718 0 22.499c0-4.218 1.73-8.264 4.81-11.248L16.417 0l12.32 11.977c2.665 2.93 4.125 6.705 4.105 10.609-.02 3.903-1.519 7.664-4.213 10.569v.024l-.696.682-11.499 11.162ZM16.43 6.539l-8.253 7.983a11.214 11.214 0 0 0-2.531 3.661 10.917 10.917 0 0 0-.882 4.322c0 .5.033.998.1 1.493l14.8-14.329-3.234-3.13Zm-6.62 25.51 16.32-15.803h.008a11.125 11.125 0 0 0-1.455-1.723l-1.638-1.585L6.714 28.75a11.305 11.305 0 0 0 1.718 1.968l.041.04 1.338 1.292Zm6.636 6.43 8.244-7.998h-.009a11.217 11.217 0 0 0 2.797-4.37c.572-1.646.743-3.398.5-5.118L13.18 35.32l3.268 3.159Z" clip-rule="evenodd"/>
  <path fill="#fff" d="M28.792 39.621a15.567 15.567 0 0 0 3.751-6.97h.192a15.415 15.415 0 0 1-.357 7.181 15.771 15.771 0 0 1-3.586 6.296v.024l-.696.686L16.6 58 5.26 47.02a15.782 15.782 0 0 1-4.377-6.788 15.376 15.376 0 0 1-.479-7.581h.188a15.595 15.595 0 0 0 4.355 7.567 7.2 7.2 0 0 0 .313.295l11.34 10.98 11.496-11.162.696-.685v-.025Z"/>
</svg>
